PathFileType	4	(X/Y/Z)	Walk1.trc
DataRate	CameraRate	NumFrames	NumMarkers	Units	OrigDataRate	OrigDataStartFrame	OrigNumFrames
200.000000	200.000000	6	56	mm	200.000000	496	536
Frame#	Times		RBHD		C7		T10		CLAV		RBack		LASI		RASI		LPSI		RACR1		RUA1		RElbow		RFA1		RWRR		RWRU		RCAR		LACR1		LElbow		LElbowM		LFA1		LWRR		LWRU		RTH1		RTH3		RTH2		RTH4		RLFC		RTB1		RTB3		RTB2		RTB4		RMMAL		RMT1		RMT5		LTH3		LTH2		LTH4		LTB1		RPSI		LBHD		LLFC		LTB4		LTH1		LTB3		LFHD		RElbowM		LMT1		LCAL		LMT5		RLMAL		LLMAL		LTB2		LCAR		RToe		LToe		LUA1		RCAL
			X1	Y1	Z1	X2	Y2	Z2	X3	Y3	Z3	X4	Y4	Z4	X5	Y5	Z5	X6	Y6	Z6	X7	Y7	Z7	X8	Y8	Z8	X9	Y9	Z9	X10	Y10	Z10	X11	Y11	Z11	X12	Y12	Z12	X13	Y13	Z13	X14	Y14	Z14	X15	Y15	Z15	X16	Y16	Z16	X17	Y17	Z17	X18	Y18	Z18	X19	Y19	Z19	X20	Y20	Z20	X21	Y21	Z21	X22	Y22	Z22	X23	Y23	Z23	X24	Y24	Z24	X25	Y25	Z25	X26	Y26	Z26	X27	Y27	Z27	X28	Y28	Z28	X29	Y29	Z29	X30	Y30	Z30	X31	Y31	Z31	X32	Y32	Z32	X33	Y33	Z33	X34	Y34	Z34	X35	Y35	Z35	X36	Y36	Z36	X37	Y37	Z37	X38	Y38	Z38	X39	Y39	Z39	X40	Y40	Z40	X41	Y41	Z41	X42	Y42	Z42	X43	Y43	Z43	X44	Y44	Z44	X45	Y45	Z45	X46	Y46	Z46	X47	Y47	Z47	X48	Y48	Z48	X49	Y49	Z49	X50	Y50	Z50	X51	Y51	Z51	X52	Y52	Z52	X53	Y53	Z53	X54	Y54	Z54	X55	Y55	Z55	X56	Y56	Z56

496	2.48	1085.8	1577.3	433.83	1072.6	1452.1	360.43	982.54	1143.2	331.98	1207.4	1375.9	332.35	1010.2	1354.3	454.56	1162.9	959.18	173.71	1172.5	957.16	476.27	991.48	970.92	271.05	1148.5	1401.5	497.39	1131.2	1212.6	582.89	1106.4	1082.4	618.08	1190	957.8	636.74	1287.3	856.47	590.95	1223.2	832.19	628.49	1282.9	798.37	634.86	1099.7	1450.3	181.85	997.04	1136.4	69.135	982.2	1133.2	147.02	1088.1	1008.2	25.209	1154.9	908.91	58.426	1079.8	888.91	27.431	1121.3	746.61	520.74	1125.8	559.45	487.17	1190.6	660.86	474.67	1124.8	650.31	507.4	1124.6	456.78	468.47	1142.6	364.29	381.16	1104	177.77	372.89	1118.9	268.2	451.46	1126.7	272.89	378.93	1057.3	97.517	324.81	1180	37.423	321.8	1157.3	29.12	412.48	1247.6	592.82	142.66	1272.4	705.68	157.87	1206.1	672.5	133.38	1291.8	387.38	215.96	989.93	975.68	376.16	1081.5	1586.5	296.02	1278.1	489.25	159.31	1234.7	314.24	224.67	1163.8	760.8	134.17	1181	238.72	231.93	1265.6	1628	312.93	1083.8	1050	527.42	1187.2	65.276	270.23	1002.8	143.13	267.36	1156.9	72.034	193.07	1035.5	79.708	412.48	1059.1	166.72	214.75	1203.5	330.38	161.56	1155.3	857.24	9.873	1233.9	27.737	340.41	1225.5	62.65	244.15	1038.2	1262.8	83.361	980.21	33.982	373.14
497	2.485	1091.5	1577.5	433.69	1078.3	1451.9	360.59	988.03	1143.5	331.76	1212.9	1375.8	332.5	1016	1354.1	454.67	1167.7	958.99	174.47	1177.8	956.79	476.46	996.88	971.24	270.97	1154.1	1401.7	497.48	1137.4	1213	583.4	1114.1	1082.9	619.18	1199.7	959.11	637.49	1298.7	859.88	591.36	1235.1	834.58	629.26	1295.3	801.54	635.11	1105.2	1450	182.04	1000.5	1136.8	69.572	986.38	1133.2	147.5	1090.5	1008.1	25.133	1156.9	908.82	57.848	1082.2	888.85	27.519	1125.1	746.47	520.95	1128.2	560.17	488.21	1193.3	660.29	474.81	1128	650.04	507.38	1125.9	456.6	468.8	1143.7	364.07	381.31	1104.5	177.73	373.05	1119.4	268.02	451.75	1127.8	272.87	378.98	1060.1	98.421	323.89	1180.1	37.557	321.75	1157.4	27.927	411	1255.2	593.95	142.88	1279	706.99	158.17	1213.2	673.49	133.25	1302.8	389.06	216.42	995.11	975.67	375.85	1087.2	1586.3	296.15	1286.1	490.18	159.98	1247.8	314.29	225.22	1170	761.35	134.01	1196.5	237.62	232.35	1272.2	1626.9	311.86	1091.7	1049.8	528.7	1207.4	64.326	270.36	1020.6	137.03	268.39	1176.7	69.85	193.57	1035.6	79.897	412.59	1075.8	162.19	215.68	1215.8	329.65	162.18	1157.2	856.98	8.9508	1233.9	27.334	339.74	1246.2	62.859	244.11	1042.4	1262.8	83.702	980.19	34.162	373.09
498	2.49	1097.2	1577.6	433.52	1084	1451.9	360.6	993.55	1143.5	331.63	1218.8	1375.6	332.43	1021.5	1354.1	455.03	1173.7	958.81	174.45	1183.5	956.58	476.29	1002.4	971.33	270.65	1159.5	1401.8	497.68	1143.7	1213.2	583.86	1121.8	1083.2	620.25	1209.4	960.69	638.23	1310	863.33	591.87	1246.2	836.25	629.73	1307.8	804.82	635.25	1110.7	1449.8	182.18	1004.1	1137.2	69.831	990.38	1133.3	148.08	1093.1	1008	24.834	1159.1	908.54	57.171	1084.2	888.88	27.425	1128.8	746.47	521.07	1130.4	560.81	489.41	1196.2	659.71	474.95	1131.3	649.64	507.33	1127.3	456.48	469	1144.7	363.82	381.7	1105	177.68	373.16	1120.2	267.83	451.94	1128.7	272.71	379.14	1059.1	98.194	325.43	1180.1	37.688	321.84	1157.5	27.286	409.89	1262.8	595.04	143.16	1285.5	708.39	158.73	1220.1	674.18	133.33	1313.5	390.78	216.89	1000.4	975.88	375.31	1093	1585.8	295.98	1293.5	491.42	160.47	1260.5	314.52	225.61	1176.4	761.85	133.9	1211.8	236.41	232.81	1278.6	1625.7	310.84	1099.8	1049.6	529.78	1227.5	63.457	270.56	1038.9	131.01	269.58	1196.4	67.856	194.14	1035.8	80.055	412.72	1092.8	157.34	216.59	1228.2	328.78	162.67	1159.2	856.75	7.9357	1233.9	27.342	339.79	1266.4	63.042	244.68	1046.8	1262.8	83.982	980.18	34.346	373.03
499	2.495	1103.1	1577.4	433.1	1089.6	1451.8	360.74	999.04	1143.3	331.46	1224.4	1375.3	332.59	1027.1	1354.1	455.27	1179.8	958.6	174.54	1189.6	956.22	475.87	1007.7	971.47	270.22	1165.2	1401.7	497.57	1150	1213.5	584.46	1129.5	1083.3	621.35	1219.2	962.2	638.94	1321.1	866.61	592.42	1257.8	838.22	629.74	1320.1	808.09	635.55	1116.2	1449.4	182.2	1007.5	1137.4	70.206	994.14	1133.6	148.77	1095.6	1007.9	24.747	1161.6	908.02	56.314	1086.1	888.72	27.234	1132.8	746.49	521.15	1132.9	560.99	490.18	1199.2	659.13	475.06	1134.4	649.3	507.13	1129	456.35	469.18	1145.8	363.52	382.05	1105.6	177.52	373.34	1121.2	267.65	452.09	1129.3	272.48	379.43	1057.4	97.19	326.06	1180.2	37.708	321.95	1157.5	27.052	409.38	1270.2	595.96	143.55	1292.1	709.44	159.04	1227.1	674.88	133.33	1323.9	392.32	217.45	1005.5	975.89	374.8	1098.6	1585.6	295.92	1301.7	492.66	160.9	1273.2	314.46	226.28	1182.7	762.06	133.77	1226.7	234.98	233.5	1285	1624.5	309.86	1108.3	1049.2	530.7	1247.8	62.385	271	1057	124.47	270.32	1216.2	66.349	194.64	1035.9	80.216	412.81	1110.1	152.6	217.44	1240.5	327.92	163.32	1160.9	856.21	7.0922	1234.1	27.57	340.29	1286.4	63.359	245.26	1051	1262.7	84.38	980.17	34.502	373.01
500	2.5	1108.8	1577.2	432.88	1095.4	1451.6	360.63	1004.4	1143.1	331.35	1229.9	1375	332.69	1032.6	1354	455.26	1185.8	958.29	174.55	1195.7	955.79	475.5	1013.2	971.39	269.78	1170.8	1401.6	497.75	1156.2	1213.7	585.18	1137.1	1083.2	622.25	1228.7	963.53	639.72	1332.2	870.03	592.73	1269.8	840.6	629.71	1332.3	811.29	635.58	1121.6	1449.1	182.26	1011.3	1137.7	70.966	998.19	1133.8	149.35	1098.3	1007.7	24.441	1164.3	907.44	55.403	1088.3	888.44	27.383	1136.7	746.49	521.07	1135.1	560.86	490.44	1202.4	658.56	475.11	1137.5	648.92	507.09	1130.4	456.2	469.38	1147	363.22	382.17	1107.4	178.08	372.6	1122	267.36	452.37	1130	272.17	379.74	1056.7	96.724	325.91	1180.3	37.679	322.02	1157.5	27.17	409.51	1277.6	596.99	143.91	1298.3	710.36	159.58	1233.9	675.44	133.34	1334.3	393.76	217.87	1010.7	975.83	374.68	1104.2	1585.3	295.45	1310.2	493.77	161.28	1285.7	314.5	226.83	1189	762.38	133.67	1241.6	233.51	234.15	1291.2	1623.3	308.94	1116.7	1049	531.61	1267.8	61.537	271.56	1074.7	117.04	272.12	1236	65.075	195.06	1036	80.304	412.82	1127.6	147.8	218.29	1252.7	326.99	163.85	1162.7	855.59	6.2459	1234.3	27.839	340.94	1306.3	63.474	245.83	1055.3	1262.7	84.828	980.18	34.66	373.04
501	2.505	1114.3	1577.3	432.69	1101	1451.4	360.65	1010	1143	331.2	1235.4	1374.7	332.76	1038.2	1353.8	455.42	1191.3	958	174.73	1201.3	955.32	475.38	1018.7	971.22	269.67	1176.3	1401.5	497.87	1162.4	1214	585.65	1144.7	1083.3	623.14	1238.2	965.15	640.49	1343.2	873.48	593.05	1281.6	842.7	629.9	1344.3	814.68	635.82	1127.1	1448.7	182.28	1015.1	1137.8	71.638	1002.6	1133.8	149.7	1100.7	1007.4	24.486	1166.9	906.94	54.577	1090.5	888.14	27.48	1140.6	746.39	520.85	1137.6	560.6	490.58	1205.7	658.09	475.12	1140.6	648.6	507.15	1132.2	455.99	469.63	1148.4	362.93	382.34	1107.3	177.65	373.14	1122.6	267.17	452.56	1131	271.99	379.9	1056.8	96.981	325.42	1180.3	37.684	322.01	1157.4	28.618	411.47	1284.9	597.69	144.34	1304.7	711.31	160.12	1240.7	675.91	133.38	1344.5	395.16	218.3	1015.7	975.82	374.61	1109.7	1584.9	295.11	1318.2	494.61	161.69	1298.4	314.41	227.37	1195.1	762.61	133.54	1256.6	232.15	234.82	1297.3	1622	308.1	1125.2	1048.6	532.4	1288.3	61.015	272.15	1093.8	111.13	272.35	1255.8	63.685	195.63	1036.2	80.401	412.79	1145.4	143.1	219.08	1264.8	326.01	164.43	1164.5	855.08	5.4571	1234.6	28.007	341.49	1326.5	63.781	246.37	1059.7	1262.7	85.203	980.21	34.782	373.12
